<?xml version="1.0" encoding="UTF-8" standalone="no"?><!DOCTYPE svg PUBLIC "-//W3C//DTD SVG 1.1//EN" "http://www.w3.org/Graphics/SVG/1.1/DTD/svg11.dtd"><svg width="100%" height="100%" viewBox="0 0 461 211" version="1.1" xmlns="http://www.w3.org/2000/svg" xmlns:xlink="http://www.w3.org/1999/xlink" xml:space="preserve" style="fill-rule:evenodd;clip-rule:evenodd;stroke-linejoin:round;stroke-miterlimit:1.41421;"><g id="arrow.-outward"><path d="M388.836,91l46,-47l0,48l26,0l0,-92l-90,0l0,26l46,0l-47,47l19,18Z" style="fill:#fff;"/><path d="M388.836,118.625l46,47l0,-48l26,0l0,92l-90,0l0,-26l46,0l-47,-47l19,-18Z" style="fill:#fff;"/><path d="M324.836,118.625l-46,47l0,-48l-26,0l0,92l90,0l0,-26l-46,0l47,-47l-19,-18Z" style="fill:#fff;"/><path d="M324.836,91l-46,-47l0,48l-26,0l0,-92l90,0l0,26l-46,0l47,47l-19,18Z" style="fill:#fff;"/></g><g id="arrow.-inward"><path d="M190,2l-46,47l0,-48l-26,0l0,92l90,0l0,-26l-46,0l47,-47l-19,-18Z" style="fill:#fff;"/><path d="M19,2l46,47l0,-48l26,0l0,92l-90,0l0,-26l46,0l-47,-47l19,-18Z" style="fill:#fff;"/><path d="M19,209.625l46,-47l0,48l26,0l0,-92l-90,0l0,26l46,0l-47,47l19,18Z" style="fill:#fff;"/><path d="M190,209.625l-46,-47l0,48l-26,0l0,-92l90,0l0,26l-46,0l47,47l-19,18Z" style="fill:#fff;"/></g></svg>