<?xml version="1.0" encoding="UTF-8" standalone="no"?><!DOCTYPE svg PUBLIC "-//W3C//DTD SVG 1.1//EN" "http://www.w3.org/Graphics/SVG/1.1/DTD/svg11.dtd"><svg width="100%" height="100%" viewBox="0 0 467 454" version="1.1" xmlns="http://www.w3.org/2000/svg" xmlns:xlink="http://www.w3.org/1999/xlink" xml:space="preserve" style="fill-rule:evenodd;clip-rule:evenodd;stroke-linejoin:round;stroke-miterlimit:1.41421;"><text x="196.391px" y="51.539px" style="font-family:'Arial-Black', 'Arial Black', sans-serif;font-weight:900;font-size:72px;">EAR<tspan x="359.762px 411.758px " y="51.539px 51.539px ">TH</tspan></text><text x="-0.107px" y="187.65px" style="font-family:'Arial-Black', 'Arial Black', sans-serif;font-weight:900;font-size:110px;">A<tspan x="83.467px 169.028px " y="187.65px 187.65px ">CT</tspan>ION</text><g id="arrow.-outward"><path d="M394.426,334.074l46,-47l0,48l26,0l0,-92l-90,0l0,26l46,0l-47,47l19,18Z" style="fill:#fec930;"/><path d="M394.426,361.699l46,47l0,-48l26,0l0,92l-90,0l0,-26l46,0l-47,-47l19,-18Z" style="fill:#fec930;"/><path d="M330.426,361.699l-46,47l0,-48l-26,0l0,92l90,0l0,-26l-46,0l47,-47l-19,-18Z" style="fill:#fec930;"/><path d="M330.426,334.074l-46,-47l0,48l-26,0l0,-92l90,0l0,26l-46,0l47,47l-19,18Z" style="fill:#fec930;"/></g><g id="arrow.-inward"><path d="M195.59,245.074l-46,47l0,-48l-26,0l0,92l90,0l0,-26l-46,0l47,-47l-19,-18Z" style="fill:#fec930;"/><path d="M24.59,245.074l46,47l0,-48l26,0l0,92l-90,0l0,-26l46,0l-47,-47l19,-18Z" style="fill:#fec930;"/><path d="M24.59,452.699l46,-47l0,48l26,0l0,-92l-90,0l0,26l46,0l-47,47l19,18Z" style="fill:#fec930;"/><path d="M195.59,452.699l-46,-47l0,48l-26,0l0,-92l90,0l0,26l-46,0l47,47l-19,18Z" style="fill:#fec930;"/></g></svg>